<?xml version="1.0" standalone="no"?>
<!DOCTYPE svg PUBLIC "-//W3C//DTD SVG 20010904//EN"
 "http://www.w3.org/TR/2001/REC-SVG-20010904/DTD/svg10.dtd">
<svg version="1.0" xmlns="http://www.w3.org/2000/svg"
 width="512.000000pt" height="512.000000pt" viewBox="0 0 512.000000 512.000000"
 preserveAspectRatio="xMidYMid meet">
<metadata>
Created by potrace 1.14, written by Peter Selinger 2001-2017
</metadata>
<g transform="translate(0.000000,512.000000) scale(0.100000,-0.100000)"
fill="#000000" stroke="none">
<path d="M558 3618 c-54 -61 -118 -144 -118 -153 0 -3 -5 -11 -10 -18 -52 -62
-106 -170 -201 -406 -10 -24 -45 -166 -53 -218 -29 -171 -28 -584 2 -639 5
-11 12 -35 15 -55 2 -20 17 -57 33 -83 16 -26 34 -55 39 -65 32 -55 103 -101
210 -137 38 -12 111 -37 160 -54 50 -18 97 -34 105 -36 8 -2 80 -26 160 -54
80 -28 150 -52 157 -54 7 -1 16 -5 19 -9 4 -4 17 -7 29 -7 11 0 25 -4 30 -9 6
-5 44 -19 85 -31 41 -12 79 -26 85 -31 5 -5 17 -9 26 -9 10 0 30 -5 46 -12 15
-6 33 -12 38 -13 6 -2 22 -6 38 -10 15 -4 27 -5 27 -2 0 2 -29 34 -64 71 -93
96 -160 245 -181 401 -23 181 -22 219 11 365 28 126 123 328 188 401 14 16 26
30 26 32 0 2 30 35 68 72 74 75 190 166 267 210 28 16 61 37 74 47 13 10 28
15 35 11 6 -4 5 1 -3 10 -7 9 -18 17 -24 17 -13 0 -143 46 -287 102 -58 22
-109 41 -115 43 -5 1 -19 6 -30 10 -83 33 -149 61 -203 86 -35 16 -65 29 -67
29 -2 0 -36 15 -77 34 -40 18 -102 46 -138 61 -36 15 -83 35 -105 45 -22 10
-74 32 -115 50 -41 18 -88 38 -104 46 -16 8 -30 14 -30 14 -1 0 -23 -24 -48
-52z m362 -378 c58 -23 130 -49 160 -60 50 -17 102 -37 155 -60 11 -4 49 -19
85 -33 39 -15 66 -31 68 -42 6 -29 -48 -73 -60 -47 -1 4 -34 23 -73 42 -38 18
-72 37 -75 40 -3 4 -23 14 -45 22 -81 32 -335 160 -335 169 0 14 9 12 120 -31z
m-215 -240 c53 -21 108 -42 200 -76 55 -20 128 -47 161 -59 34 -13 71 -28 82
-34 10 -6 22 -7 26 -4 3 3 6 1 6 -5 0 -7 6 -12 14 -12 22 0 39 -28 32 -55 -8
-31 -45 -34 -96 -6 -55 30 -151 77 -337 167 -109 52 -173 89 -173 98 0 15 22
11 85 -14z m-83 -279 c35 -15 83 -37 108 -46 25 -10 63 -27 86 -36 22 -10 63
-27 90 -37 106 -42 201 -91 207 -106 8 -21 -21 -49 -42 -40 -9 3 -25 9 -36 12
-11 3 -31 13 -45 22 -29 20 -62 34 -72 32 -5 -1 -8 2 -8 8 0 6 -6 10 -12 10
-7 1 -38 14 -68 30 -30 16 -73 38 -95 50 -79 41 -179 105 -183 118 -5 17 -1
16 70 -17z"/>
<path d="M2750 3613 c-19 -10 -38 -21 -41 -26 -3 -5 -8 -7 -10 -6 -2 2 -51
-20 -109 -48 -58 -27 -124 -59 -148 -69 -23 -10 -39 -21 -35 -25 5 -4 38 -16
75 -27 62 -18 68 -19 85 -3 19 18 147 66 201 75 19 3 47 0 65 -8 18 -7 34 -13
37 -14 17 -3 49 -19 78 -38 30 -21 36 -21 65 -9 18 7 51 16 75 20 23 4 42 10
42 14 0 13 -317 182 -339 181 -3 0 -22 -8 -41 -17z"/>
<path d="M1251 3581 c-27 -21 -47 -42 -43 -48 10 -15 70 -44 217 -103 72 -29
164 -68 205 -88 163 -75 210 -96 325 -143 175 -72 175 -72 175 -89 0 -9 -16
-22 -37 -29 -53 -20 -206 -115 -288 -180 -235 -187 -387 -412 -450 -665 -17
-71 -21 -113 -19 -210 2 -127 17 -194 65 -286 23 -45 100 -142 107 -136 2 2
-10 28 -27 58 -40 71 -73 204 -73 298 0 65 4 104 27 219 6 30 26 93 34 106 3
6 7 19 8 29 2 11 8 24 13 31 5 6 26 44 46 85 81 164 190 290 349 400 28 19 52
37 55 40 8 8 107 60 115 60 4 0 5 -6 2 -14 -5 -12 13 -13 101 -10 140 5 207
-15 305 -90 39 -30 127 -144 127 -165 0 -6 4 -11 9 -11 5 0 11 -8 14 -17 3
-10 17 -45 31 -78 13 -33 28 -73 31 -90 11 -50 21 -197 18 -250 -2 -27 -5 -88
-7 -135 -3 -79 -26 -164 -56 -210 -6 -10 -10 51 -10 186 l0 201 -77 -2 -78 -2
-5 -219 c-5 -211 -6 -219 -25 -219 -19 0 -20 8 -23 221 l-2 221 -80 -1 -80 -1
-1 -165 c-1 -310 2 -334 53 -357 34 -15 104 -10 126 10 22 20 33 22 30 5 -2
-8 10 -14 30 -16 17 -2 32 -7 32 -11 0 -8 -119 -123 -156 -151 -11 -8 -37 -28
-59 -45 -48 -35 -69 -55 -59 -55 16 0 183 85 247 126 37 24 72 44 76 44 5 0
11 3 13 8 2 4 28 27 58 52 30 24 56 48 58 52 2 4 18 -2 35 -13 41 -24 73 -24
120 1 44 24 48 24 41 6 -4 -11 9 -15 66 -18 40 -1 77 0 84 4 8 5 11 90 12 295
l1 288 30 65 c58 124 73 159 73 167 0 5 25 74 55 153 31 80 72 197 92 260 20
63 51 147 69 186 36 79 135 214 209 288 26 25 45 49 42 52 -13 13 -193 -102
-253 -161 -35 -34 -89 -107 -129 -174 -85 -143 -224 -253 -335 -267 -84 -10
-171 -5 -238 15 -18 5 -36 11 -40 12 -16 4 -40 13 -107 40 -128 52 -202 57
-335 20 -87 -24 -80 -23 -80 -12 0 9 41 29 75 35 11 2 67 20 125 39 58 19 118
38 135 42 l30 7 -40 24 c-44 27 -248 130 -310 156 -22 10 -96 43 -165 74 -69
31 -132 57 -140 59 -9 2 -85 35 -170 75 -85 40 -199 92 -252 115 l-97 43 -50
-37z"/>
<path d="M2720 3444 c-22 -7 -40 -10 -40 -7 0 3 -14 -10 -31 -28 -17 -19 -28
-28 -24 -21 3 6 4 12 1 12 -10 0 -38 -62 -31 -68 3 -4 16 -7 27 -7 40 0 28
-20 -12 -20 -51 -1 -59 -10 -66 -71 -5 -40 -2 -59 15 -92 53 -103 127 -154
226 -155 124 0 233 96 237 210 3 64 -2 81 -24 87 -18 5 -20 8 -10 15 12 7 11
14 -2 39 -9 17 -26 41 -39 53 -21 20 -100 60 -115 58 -4 -1 -9 0 -12 1 -18 7
-66 4 -100 -6z"/>
<path d="M1695 2434 c-5 -2 -29 -8 -51 -13 -36 -10 -131 -71 -109 -71 4 0 2
-7 -5 -16 -18 -21 -20 -141 -3 -184 19 -47 33 -61 127 -124 89 -60 101 -77
105 -148 2 -39 -1 -48 -19 -58 -35 -19 -50 5 -52 82 l-2 66 -72 -3 c-40 -1
-77 -6 -83 -10 -13 -7 -13 -92 0 -139 20 -70 90 -110 194 -110 55 -1 81 5 119
24 71 36 88 72 84 180 -5 123 -21 150 -132 221 -96 63 -110 77 -112 124 -2 39
12 65 36 65 20 0 33 -30 30 -66 -5 -44 -3 -45 83 -42 l82 3 -2 44 c-4 122 -30
150 -153 167 -19 3 -39 6 -45 8 -5 2 -14 2 -20 0z"/>
<path d="M3485 2285 c3 -44 8 -87 10 -95 3 -8 7 -44 11 -80 6 -73 9 -98 17
-155 3 -22 8 -60 11 -85 10 -89 18 -145 21 -148 3 -4 196 -4 200 0 2 2 7 30
10 62 4 33 9 67 10 75 2 9 7 41 11 71 4 30 9 58 10 63 1 4 2 17 3 30 l2 22 9
-21 c5 -12 11 -50 15 -85 3 -35 8 -71 10 -79 2 -8 7 -31 10 -50 3 -19 8 -47
11 -62 l6 -28 104 0 104 0 1 28 c0 15 2 36 5 47 2 11 6 47 10 80 7 71 10 93
19 165 17 132 21 164 30 256 l7 71 -72 -2 c-39 -2 -76 -7 -80 -11 -5 -5 -11
-29 -15 -54 -3 -25 -8 -61 -10 -80 -5 -38 -15 -141 -20 -205 -4 -56 -4 -55
-13 -55 -4 0 -8 8 -8 18 0 9 -4 55 -8 102 -3 47 -9 112 -11 145 -3 33 -7 78
-10 101 l-6 40 -75 -2 c-42 -2 -79 -5 -82 -9 -9 -8 -18 -71 -37 -250 -4 -33
-8 -69 -10 -80 -2 -11 -4 -26 -4 -33 -1 -7 -5 -11 -9 -8 -5 3 -10 30 -11 60
-1 30 -4 64 -6 75 -2 10 -6 68 -10 128 -4 59 -9 110 -11 113 -3 2 -39 5 -80 5
l-75 0 6 -80z"/>
<path d="M2023 2310 c-13 -4 -18 -14 -17 -39 0 -25 -5 -35 -18 -39 -10 -2 -18
-9 -19 -16 -1 -6 -2 -23 -3 -38 -2 -21 1 -28 16 -28 20 0 20 3 20 -229 0 -74
5 -145 10 -157 14 -30 56 -44 135 -44 l64 0 -3 43 c-2 24 -8 43 -15 43 -7 1
-17 2 -23 3 -6 1 -10 65 -10 170 0 168 0 170 23 173 18 2 22 9 21 38 -2 49 -2
49 -21 46 -14 -2 -19 6 -23 38 l-5 41 -57 0 c-31 0 -64 -2 -75 -5z"/>
<path d="M4315 2250 c-4 -6 -10 -8 -15 -5 -5 3 -12 0 -15 -6 -4 -5 -12 -9 -19
-7 -9 3 -74 -55 -76 -67 0 -3 0 -6 -1 -7 -17 -58 -19 -293 -3 -350 20 -68 64
-93 164 -93 94 0 129 15 163 67 23 36 27 53 28 118 2 177 -2 235 -19 270 -21
44 -79 76 -138 79 -26 0 -50 4 -54 6 -5 3 -11 1 -15 -5z"/>
<path d="M4740 2250 c0 -3 -19 -13 -43 -23 -42 -17 -76 -58 -86 -102 -2 -11
-4 -83 -4 -160 -1 -164 11 -202 71 -231 39 -19 144 -25 194 -11 43 12 87 65
94 117 12 75 7 295 -6 321 -26 50 -55 72 -115 85 -30 7 -105 10 -105 4z"/>
<path d="M3096 2238 c3 -4 7 -26 10 -50 3 -24 9 -56 14 -73 5 -16 12 -48 16
-70 3 -22 19 -102 35 -177 16 -76 29 -139 29 -141 0 -1 -12 -4 -26 -5 -36 -3
-40 -6 -42 -46 l-3 -36 83 1 c109 0 148 14 171 60 17 35 40 167 52 299 4 36
11 92 16 125 5 33 9 74 9 92 l0 31 -52 -3 c-29 -2 -58 -4 -64 -4 -16 -1 -25
-41 -30 -131 -3 -41 -7 -91 -8 -110 -2 -19 -4 -43 -5 -52 -1 -10 -5 -18 -9
-18 -7 0 -17 50 -47 255 -1 11 -3 29 -4 41 -1 19 -7 21 -75 20 -41 -1 -72 -4
-70 -8z"/>
</g>
</svg>
