<?xml version="1.0" encoding="UTF-8" standalone="no"?><!DOCTYPE svg PUBLIC "-//W3C//DTD SVG 1.1//EN" "http://www.w3.org/Graphics/SVG/1.1/DTD/svg11.dtd"><svg width="100%" height="100%" viewBox="0 0 256 67" version="1.1" xmlns="http://www.w3.org/2000/svg" xmlns:xlink="http://www.w3.org/1999/xlink" xml:space="preserve" xmlns:serif="http://www.serif.com/" style="fill-rule:evenodd;clip-rule:evenodd;stroke-linejoin:round;stroke-miterlimit:2;"><g><path d="M217.447,58.007l0.227,-0.446c0.392,0.384 1.089,0.666 1.809,0.666c1.026,0 1.472,-0.431 1.472,-0.971c0,-1.504 -3.375,-0.58 -3.375,-2.608c0,-0.807 0.627,-1.503 2.021,-1.503c0.618,0 1.26,0.18 1.699,0.485l-0.196,0.462c-0.469,-0.305 -1.018,-0.454 -1.503,-0.454c-1.003,0 -1.449,0.446 -1.449,0.994c0,1.504 3.375,0.596 3.375,2.592c0,0.807 -0.642,1.496 -2.044,1.496c-0.822,0 -1.629,-0.29 -2.036,-0.713" style="fill:#143f6c;fill-rule:nonzero;"/><path d="M224.009,53.693l-1.926,0l0,-0.501l4.432,0l0,0.501l-1.927,0l0,4.98l-0.579,0l0,-4.98Z" style="fill:#143f6c;fill-rule:nonzero;"/><path d="M227.517,56.332l0,-3.14l0.579,0l0,3.116c0,1.3 0.611,1.895 1.676,1.895c1.073,0 1.684,-0.595 1.684,-1.895l0,-3.116l0.563,0l0,3.14c0,1.574 -0.845,2.388 -2.247,2.388c-1.402,0 -2.255,-0.814 -2.255,-2.388" style="fill:#143f6c;fill-rule:nonzero;"/><path d="M236.2,58.172c1.457,0 2.397,-0.924 2.397,-2.24c0,-1.315 -0.94,-2.239 -2.397,-2.239l-1.62,0l0,4.479l1.62,0Zm-2.2,-4.98l2.232,0c1.754,0 2.936,1.127 2.936,2.74c0,1.613 -1.182,2.741 -2.936,2.741l-2.232,0l0,-5.481Z" style="fill:#143f6c;fill-rule:nonzero;"/><path d="M242.347,56.778l0,1.895l-0.572,0l0,-1.895l-2.193,-3.586l0.619,0l1.88,3.077l1.879,-3.077l0.58,0l-2.193,3.586Z" style="fill:#143f6c;fill-rule:nonzero;"/><rect x="247.961" y="53.192" width="0.579" height="5.481" style="fill:#143f6c;"/><path d="M255.142,53.192l0,5.481l-0.478,0l-3.524,-4.448l0,4.448l-0.579,0l0,-5.481l0.477,0l3.532,4.447l0,-4.447l0.572,0Z" style="fill:#143f6c;fill-rule:nonzero;"/><path d="M221.431,63.512l1.141,0l0,2.188c-0.594,0.447 -1.411,0.686 -2.181,0.686c-1.696,0 -2.944,-1.163 -2.944,-2.789c0,-1.626 1.248,-2.79 2.967,-2.79c0.948,0 1.734,0.324 2.258,0.932l-0.802,0.74c-0.392,-0.416 -0.847,-0.609 -1.394,-0.609c-1.048,0 -1.765,0.701 -1.765,1.727c0,1.009 0.717,1.726 1.749,1.726c0.339,0 0.655,-0.062 0.971,-0.232l0,-1.579Z" style="fill:#143f6c;fill-rule:nonzero;"/><path d="M223.681,63.92l0,-3.02l1.248,0l0,2.974c0,1.025 0.447,1.449 1.202,1.449c0.763,0 1.202,-0.424 1.202,-1.449l0,-2.974l1.233,0l0,3.02c0,1.588 -0.909,2.466 -2.443,2.466c-1.533,0 -2.442,-0.878 -2.442,-2.466" style="fill:#143f6c;fill-rule:nonzero;"/><path d="M229.036,65.6l0.693,-0.832c0.293,0.393 0.617,0.593 1.002,0.593c0.501,0 0.763,-0.3 0.763,-0.893l0,-2.567l-1.896,0l0,-1.002l3.137,0l0,3.499c0,1.333 -0.671,1.988 -1.942,1.988c-0.725,0 -1.364,-0.277 -1.757,-0.786" style="fill:#143f6c;fill-rule:nonzero;"/><path d="M237.011,64.19l-0.855,-2.065l-0.856,2.065l1.711,0Zm0.393,0.948l-2.505,0l-0.477,1.156l-1.279,0l2.404,-5.394l1.233,0l2.412,5.394l-1.31,0l-0.478,-1.156Z" style="fill:#143f6c;fill-rule:nonzero;"/><path d="M242.019,61.917l-1.017,0l0,1.88l1.017,0c0.763,0 1.149,-0.354 1.149,-0.94c0,-0.593 -0.386,-0.94 -1.149,-0.94m1.172,4.377l-1.041,-1.503l-0.061,0l-1.087,0l0,1.503l-1.248,0l0,-5.394l2.335,0c1.441,0 2.343,0.747 2.343,1.957c0,0.809 -0.409,1.402 -1.11,1.703l1.21,1.734l-1.341,0Z" style="fill:#143f6c;fill-rule:nonzero;"/><path d="M248.576,64.19l-0.855,-2.065l-0.855,2.065l1.71,0Zm0.394,0.948l-2.505,0l-0.478,1.156l-1.279,0l2.404,-5.394l1.233,0l2.413,5.394l-1.31,0l-0.478,-1.156Z" style="fill:#143f6c;fill-rule:nonzero;"/><path d="M252.167,61.917l-1.726,0l0,-1.017l4.701,0l0,1.017l-1.726,0l0,4.377l-1.249,0l0,-4.377Z" style="fill:#143f6c;fill-rule:nonzero;"/><path d="M235.778,36.812l0.025,0.03c0.003,-0.004 0.007,-0.009 0.01,-0.013c-0.012,-0.005 -0.025,-0.01 -0.038,-0.014c-0.004,-0.007 -0.008,-0.013 -0.013,-0.019c0,0.004 -0.001,0.011 0,0.012c0.005,0.003 0.01,0.003 0.016,0.004m4.931,8.593c-0.204,0.033 -0.287,-0.045 -0.205,-0.301c-0.112,0.072 -0.164,0.114 -0.222,0.14c-0.086,0.039 -0.188,0.051 -0.262,0.103c-0.13,0.093 -0.211,0.263 -0.408,0.243c0.025,0.065 0.041,0.136 0.076,0.194c0.047,0.078 0.14,0.139 0.158,0.22c0.044,0.194 -0.1,0.331 -0.357,0.343c-0.225,0.011 -0.455,-0.019 -0.656,0.124c-0.014,0.009 -0.044,-0.004 -0.089,-0.009c0.065,-0.209 0.139,-0.406 0.183,-0.61c0.026,-0.117 -0.032,-0.258 0.01,-0.364c0.068,-0.174 0.183,-0.332 0.287,-0.49c0.021,-0.033 0.08,-0.05 0.123,-0.057c0.245,-0.039 0.304,-0.172 0.163,-0.378c-0.023,-0.034 -0.053,-0.062 -0.094,-0.109c0.198,-0.195 0.19,-0.441 0.172,-0.694c-0.004,-0.056 0.059,-0.113 0.068,-0.173c0.02,-0.144 0.027,-0.29 0.043,-0.477c0.027,-0.021 0.094,-0.074 0.151,-0.119c-0.05,-0.093 -0.091,-0.17 -0.139,-0.261c-0.014,0.007 -0.05,0.027 -0.091,0.049c-0.13,-0.115 -0.015,-0.224 0.024,-0.361c-0.09,0.044 -0.155,0.076 -0.221,0.108c-0.005,-0.132 -0.01,-0.258 -0.015,-0.384c-0.017,-0.005 -0.034,-0.009 -0.051,-0.013c0.085,-0.073 0.171,-0.146 0.257,-0.22l-0.007,-0.075c-0.314,0.192 -0.392,-0.122 -0.592,-0.174c0.007,-0.024 0.013,-0.048 0.02,-0.071c0.056,0.004 0.112,0.007 0.167,0.013c0.179,0.02 0.216,-0.026 0.15,-0.19c-0.022,-0.055 -0.051,-0.108 -0.068,-0.164c-0.037,-0.12 -0.103,-0.145 -0.216,-0.089c-0.052,0.027 -0.119,0.025 -0.183,0.037c-0.038,0.052 -0.085,0.118 -0.132,0.184c-0.016,-0.008 -0.032,-0.016 -0.049,-0.025c0.015,-0.053 0.021,-0.11 0.044,-0.159c0.108,-0.224 0.106,-0.23 -0.168,-0.257c0.098,-0.076 0.173,-0.135 0.241,-0.188c-0.128,-0.093 -0.27,-0.196 -0.439,-0.318c-0.317,0.052 -0.076,-0.3 -0.276,-0.384c0.132,-0.053 0.21,-0.084 0.335,-0.133c-0.127,-0.001 -0.206,0.003 -0.283,-0.005c-0.029,-0.003 -0.053,-0.036 -0.08,-0.056c0.021,-0.025 0.037,-0.06 0.063,-0.074c0.197,-0.106 0.394,-0.211 0.595,-0.308c0.055,-0.027 0.122,-0.027 0.201,-0.084c-0.055,-0.015 -0.121,-0.056 -0.164,-0.039c-0.136,0.054 -0.265,0.128 -0.395,0.196c-0.06,0.031 -0.118,0.064 -0.177,0.096c-0.017,-0.016 -0.034,-0.032 -0.051,-0.049c0.088,-0.125 0.156,-0.271 0.268,-0.369c0.134,-0.119 0.312,-0.186 0.456,-0.295c0.11,-0.084 0.208,-0.191 0.289,-0.304c0.068,-0.093 0.12,-0.115 0.245,-0.105c0.138,0.011 0.29,-0.061 0.426,-0.12c0.255,-0.11 0.503,-0.235 0.752,-0.358c0.054,-0.027 0.097,-0.074 0.146,-0.111c-0.012,-0.019 -0.023,-0.037 -0.035,-0.055c-0.13,0.057 -0.266,0.105 -0.39,0.174c-0.255,0.141 -0.503,0.216 -0.814,0.217c-0.234,0 -0.476,0.037 -0.718,0.014c-0.138,-0.013 -0.278,-0.009 -0.417,0.002c-0.086,0.007 -0.169,0.047 -0.255,0.061c-0.059,0.01 -0.146,0.026 -0.176,-0.005c-0.034,-0.034 -0.033,-0.12 -0.023,-0.179c0.037,-0.203 0.082,-0.405 0.13,-0.606c0.01,-0.042 0.043,-0.08 0.068,-0.117c0.042,-0.064 0.104,-0.119 0.127,-0.189c0.055,-0.164 0.132,-0.272 0.331,-0.243c0.042,0.007 0.104,-0.042 0.137,-0.081c0.05,-0.058 0.082,-0.13 0.137,-0.223c-0.211,0.088 -0.404,0.168 -0.596,0.249c-0.01,0.004 -0.015,0.019 -0.025,0.024c-0.096,0.044 -0.193,0.089 -0.289,0.133c-0.051,-0.133 -0.149,-0.269 -0.141,-0.398c0.014,-0.249 0.091,-0.495 0.139,-0.743c0.057,-0.288 0.339,-0.402 0.596,-0.258c0.118,0.065 0.262,0.082 0.405,0.124c0.069,-0.084 0.141,-0.177 0.22,-0.265c0.092,-0.102 0.2,-0.104 0.324,-0.05c0.065,0.029 0.199,0.049 0.207,0.032c0.035,-0.081 0.037,-0.176 0.047,-0.247c-0.141,-0.001 -0.236,-0.01 -0.329,0c-0.096,0.01 -0.2,0.021 -0.284,0.064c-0.105,0.053 -0.197,0.084 -0.315,0.043c-0.193,-0.067 -0.387,-0.138 -0.587,-0.173c-0.088,-0.016 -0.196,0.041 -0.285,0.087c-0.115,0.059 -0.219,0.14 -0.327,0.212l-0.04,-0.041c0.004,-0.047 0.009,-0.094 0.016,-0.158c-0.045,0.007 -0.089,0.003 -0.119,0.022c-0.071,0.044 -0.159,0.12 -0.208,0.016c-0.042,-0.089 -0.022,-0.209 -0.019,-0.315c0.001,-0.027 0.056,-0.051 0.061,-0.081c0.008,-0.042 -0.008,-0.088 -0.014,-0.132c-0.043,0.008 -0.109,0.001 -0.125,0.025c-0.065,0.104 -0.11,0.219 -0.171,0.326c-0.036,0.065 -0.077,0.155 -0.134,0.173c-0.092,0.029 -0.171,-0.006 -0.207,-0.134c-0.014,-0.048 -0.178,-0.084 -0.266,-0.071c-0.082,0.012 -0.154,0.096 -0.231,0.148c0.066,0.085 0.066,0.085 0.379,-0.024c-0.035,0.202 -0.02,0.23 0.198,0.238c0.121,0.004 0.145,0.079 0.145,0.161c0,0.281 0.045,0.57 -0.164,0.817c-0.069,0.082 -0.121,0.155 -0.24,0.141c-0.033,-0.004 -0.084,-0.001 -0.101,0.02c-0.131,0.16 -0.245,0.086 -0.366,-0.012c-0.027,-0.021 -0.079,-0.01 -0.134,-0.015c0.045,0.057 0.08,0.1 0.113,0.142c-0.054,0.054 -0.101,0.1 -0.168,0.166c-0.064,0 -0.163,-0.001 -0.263,-0.002c-0.004,0.023 -0.008,0.045 -0.012,0.068c0.125,0.031 0.25,0.087 0.376,0.088c0.158,0.002 0.262,0.087 0.246,0.251c-0.004,0.039 -0.001,0.079 -0.002,0.17c-0.084,-0.054 -0.145,-0.086 -0.197,-0.128c-0.061,-0.048 -0.108,-0.115 -0.173,-0.153c-0.037,-0.022 -0.098,-0.005 -0.148,-0.005l0,0.046c0.076,0.064 0.152,0.127 0.228,0.19l-0.034,0.073c-0.143,-0.041 -0.286,-0.082 -0.454,-0.129c-0.001,0.104 -0.039,0.232 0.009,0.299c0.04,0.057 0.151,0.153 0.277,0.071c0.037,-0.024 0.112,0.012 0.169,0.019c0.045,0.006 0.092,0.018 0.136,0.012c0.068,-0.009 0.165,-0.065 0.195,-0.04c0.08,0.071 0.142,0.169 0.19,0.267c0.057,0.115 0.102,0.214 0.257,0.235c0.14,0.018 0.223,0.26 0.162,0.38c-0.067,0.133 -0.112,0.278 -0.176,0.414c-0.088,0.184 -0.175,0.371 -0.281,0.545c-0.164,0.269 -0.434,0.475 -0.48,0.814c-0.003,0.017 -0.011,0.034 -0.012,0.052c-0.001,0.099 0.099,0.213 -0.021,0.294c-0.172,0.114 -0.348,0.289 -0.532,0.302c-0.288,0.02 -0.477,0.193 -0.705,0.306c-0.068,0.034 -0.119,0.103 -0.188,0.132c-0.092,0.04 -0.197,0.049 -0.29,0.087c-0.163,0.066 -0.322,0.142 -0.479,0.22c-0.058,0.029 -0.106,0.077 -0.161,0.112c-0.029,0.018 -0.065,0.042 -0.095,0.039c-0.175,-0.021 -0.309,-0.006 -0.369,0.139c-0.102,0.25 -0.318,0.304 -0.524,0.337c-0.369,0.059 -0.671,0.259 -1.003,0.398c-0.266,0.112 -0.539,0.209 -0.835,0.219c-0.049,0.002 -0.096,0.059 -0.145,0.091c-0.03,0.021 -0.058,0.058 -0.09,0.061c-0.184,0.013 -0.368,0.023 -0.553,0.024c-0.056,0.001 -0.126,-0.012 -0.167,-0.046c-0.077,-0.063 -0.144,-0.099 -0.24,-0.045c-0.018,0.011 -0.057,-0.006 -0.082,-0.018c-0.277,-0.137 -0.559,-0.262 -0.825,-0.416c-0.227,-0.131 -0.436,-0.296 -0.653,-0.445c-0.029,-0.021 -0.055,-0.049 -0.087,-0.062c-0.41,-0.162 -0.698,-0.485 -1.015,-0.769c-0.066,-0.06 -0.125,-0.129 -0.196,-0.182c-0.344,-0.255 -0.597,-0.588 -0.841,-0.935c-0.156,-0.223 -0.359,-0.413 -0.528,-0.628c-0.074,-0.095 -0.115,-0.216 -0.171,-0.325c-0.013,-0.024 -0.02,-0.054 -0.039,-0.072c-0.242,-0.232 -0.486,-0.463 -0.73,-0.694c-0.047,-0.045 -0.089,-0.101 -0.145,-0.129c-0.265,-0.137 -0.414,-0.384 -0.592,-0.603c-0.022,-0.027 -0.039,-0.067 -0.067,-0.08c-0.259,-0.118 -0.397,-0.31 -0.373,-0.631c-0.146,0.154 -0.243,0.087 -0.346,-0.021c-0.314,-0.33 -0.637,-0.651 -0.949,-0.984c-0.075,-0.08 -0.114,-0.193 -0.178,-0.284c-0.176,-0.25 -0.361,-0.493 -0.532,-0.746c-0.07,-0.102 -0.136,-0.22 0.003,-0.343c0.025,0.027 0.053,0.056 0.071,0.076c0.057,-0.07 0.109,-0.136 0.169,-0.211c-0.049,0.003 -0.112,0.006 -0.175,0.009c-0.032,-0.26 0.257,-0.557 0.575,-0.558c-0.041,0.053 -0.073,0.09 -0.1,0.13c-0.029,0.042 -0.086,0.111 -0.074,0.126c0.038,0.051 0.105,0.121 0.155,0.116c0.153,-0.013 0.302,-0.057 0.493,-0.098c0.053,0.03 0.07,0.092 0.01,0.193c-0.052,0.088 -0.087,0.19 -0.111,0.29c-0.025,0.104 0.133,0.271 0.254,0.265c0.202,-0.011 0.395,-0.046 0.555,-0.196c0.05,-0.048 0.15,-0.058 0.227,-0.058c0.206,0 0.411,0.006 0.536,-0.199c0.037,-0.061 0.054,-0.135 0.075,-0.205c0.018,-0.059 0.029,-0.12 0.044,-0.18c0.044,0.05 0.108,0.092 0.129,0.15c0.022,0.062 0.004,0.138 0.003,0.217c0.082,0.028 0.164,0.055 0.233,0.079c0.142,-0.094 0.276,-0.183 0.409,-0.271c0.012,0.014 0.024,0.028 0.037,0.041c0.047,-0.109 0.095,-0.218 0.155,-0.358c0.086,0.096 0.152,0.169 0.216,0.243c0.071,0.082 0.113,0.07 0.174,-0.023c0.04,-0.061 0.128,-0.092 0.195,-0.137c0.126,-0.085 0.255,-0.166 0.379,-0.254c0.207,-0.145 0.423,-0.241 0.685,-0.183c0.333,0.072 0.407,0.029 0.571,-0.261c0.116,-0.206 0.257,-0.398 0.373,-0.604c0.081,-0.146 0.133,-0.308 0.207,-0.459c0.142,-0.289 0.329,-0.557 0.604,-0.721c0.113,-0.067 0.251,-0.062 0.317,-0.22c0.11,-0.261 0.045,-0.485 -0.217,-0.631c-0.012,0.01 -0.024,0.024 -0.04,0.03c-0.342,0.143 -0.283,0.447 -0.291,0.724c-0.005,0.165 -0.133,0.268 -0.282,0.206c-0.17,-0.071 -0.33,-0.165 -0.48,-0.242c-0.063,0.036 -0.149,0.119 -0.241,0.126c-0.104,0.007 -0.213,-0.054 -0.354,-0.095c0.021,0.064 0.041,0.129 0.066,0.207c-0.008,0.006 -0.028,0.034 -0.053,0.04c-0.234,0.058 -0.47,0.108 -0.704,0.167c-0.229,0.057 -0.471,0.09 -0.678,0.194c-0.158,0.08 -0.285,0.242 -0.395,0.39c-0.069,0.094 -0.127,0.122 -0.234,0.103c-0.555,-0.1 -1.1,-0.231 -1.626,-0.443c-0.116,-0.046 -0.267,-0.005 -0.387,-0.047c-0.203,-0.073 -0.415,-0.152 -0.586,-0.278c-0.288,-0.215 -0.606,-0.369 -0.914,-0.546c-0.425,-0.244 -0.823,-0.538 -1.224,-0.822c-0.1,-0.071 -0.176,-0.18 -0.249,-0.282c-0.022,-0.03 -0.006,-0.097 0.009,-0.141c0.016,-0.046 0.052,-0.085 0.093,-0.148c-0.155,-0.045 -0.368,0.147 -0.401,-0.098c-0.01,-0.075 0.149,-0.172 0.25,-0.28c-0.068,-0.034 -0.171,-0.081 -0.267,-0.138c-0.046,-0.028 -0.114,-0.077 -0.113,-0.114c0.001,-0.057 0.055,-0.112 0.1,-0.193c-0.056,0.003 -0.124,-0.009 -0.178,0.013c-0.17,0.066 -0.183,0.061 -0.172,-0.115c-0.051,0.002 -0.103,0.004 -0.155,0.007c-0.01,-0.017 -0.02,-0.033 -0.03,-0.05c0.094,-0.116 0.187,-0.231 0.283,-0.349c-0.047,-0.028 -0.11,-0.066 -0.177,-0.106c-0.008,0.084 0.068,0.239 -0.154,0.184c0.002,-0.175 -0.002,-0.353 0.006,-0.53c0.005,-0.107 0.068,-0.143 0.173,-0.107c0.069,0.023 0.141,0.035 0.212,0.053c0.008,-0.015 0.015,-0.031 0.023,-0.046c-0.037,-0.041 -0.074,-0.082 -0.088,-0.098c0.195,-0.162 0.377,-0.342 0.587,-0.479c0.122,-0.08 0.228,-0.154 0.294,-0.287c0.018,-0.037 0.077,-0.087 0.106,-0.08c0.216,0.048 0.354,-0.097 0.512,-0.192c0.044,-0.026 0.085,-0.058 0.127,-0.087c-0.006,-0.018 -0.013,-0.037 -0.019,-0.055c-0.096,0.031 -0.207,0.04 -0.284,0.097c-0.111,0.082 -0.218,0.133 -0.358,0.119c-0.143,-0.014 -0.248,0.033 -0.311,0.179c-0.025,0.059 -0.104,0.105 -0.168,0.134c-0.356,0.162 -0.767,0.232 -0.994,0.604c-0.037,0.06 -0.047,0.138 -0.088,0.194c-0.037,0.051 -0.1,0.12 -0.15,0.12c-0.208,-0.002 -0.415,-0.021 -0.621,-0.048c-0.057,-0.007 -0.108,-0.064 -0.167,-0.101c0.089,-0.08 0.148,-0.142 0.215,-0.19c0.032,-0.023 0.097,-0.042 0.121,-0.026c0.159,0.109 0.207,-0.051 0.303,-0.108c-0.133,0.048 -0.257,0.047 -0.319,-0.086c-0.049,-0.107 -0.059,-0.234 -0.087,-0.355c-0.023,0.009 -0.062,0.025 -0.108,0.044c0.066,-0.464 0.121,-0.645 0.437,-0.687c0,-0.063 0.001,-0.127 0.001,-0.199c0.293,0.135 0.301,0.132 0.385,-0.17c0.034,0.051 0.06,0.088 0.061,0.09c0.192,-0.028 0.364,-0.073 0.537,-0.073c0.338,0.001 0.677,0.027 1.016,0.042c0.057,0.002 0.115,0.001 0.196,0.001c0.003,-0.333 0.004,-0.648 0.008,-0.963c0.003,-0.202 0.008,-0.405 0.017,-0.607c0.009,-0.189 0.085,-0.272 0.231,-0.271c0.11,0 0.16,0.042 0.17,0.157c0.009,0.107 0.044,0.212 0.068,0.318l0.071,0.002c0.058,-0.101 0.117,-0.2 0.172,-0.302c0.072,-0.132 0.126,-0.139 0.221,-0.02c0.011,0.014 0.024,0.028 0.031,0.044c0.116,0.275 0.227,0.212 0.422,0.109c0.129,-0.069 0.248,-0.084 0.367,-0.003c0.2,0.138 0.398,0.108 0.626,0.058c0.273,-0.059 0.563,-0.049 0.845,-0.052c0.195,-0.003 0.395,0.004 0.585,0.045c0.117,0.026 0.25,0.1 0.32,0.194c0.22,0.298 0.502,0.419 0.864,0.399c0.226,-0.012 0.453,0.004 0.68,0.002c0.316,-0.001 0.449,-0.094 0.559,-0.393c0.068,-0.185 0.146,-0.317 0.386,-0.345c0.219,-0.025 0.428,-0.15 0.642,-0.228c0.049,-0.018 0.104,-0.02 0.154,-0.034c0.106,-0.029 0.212,-0.059 0.318,-0.091c0.213,-0.064 0.423,-0.137 0.639,-0.191c0.051,-0.013 0.118,0.036 0.177,0.056c-0.023,0.054 -0.046,0.108 -0.071,0.161c-0.007,0.016 -0.024,0.027 -0.03,0.043c-0.1,0.242 0.141,0.645 0.403,0.675c0.094,0.011 0.19,0.019 0.282,0.04c0.271,0.062 0.497,-0.059 0.687,-0.146c0.029,-0.12 0.022,-0.248 0.079,-0.291c0.145,-0.108 0.271,-0.309 0.511,-0.19c0.041,0.021 0.114,0.008 0.159,-0.016c0.098,-0.051 0.19,-0.115 0.279,-0.181c0.033,-0.024 0.07,-0.07 0.069,-0.105c-0.002,-0.035 -0.043,-0.08 -0.078,-0.1c-0.05,-0.029 -0.11,-0.045 -0.168,-0.055c-0.216,-0.035 -0.226,-0.054 -0.225,-0.278c0,-0.087 -0.023,-0.181 -0.061,-0.259c-0.072,-0.151 -0.004,-0.383 0.148,-0.463c0.105,-0.055 0.206,-0.12 0.316,-0.164c0.05,-0.019 0.122,-0.013 0.174,0.007c0.132,0.049 0.255,0.124 0.387,0.169c0.152,0.052 0.3,0.08 0.459,-0.027c0.07,-0.048 0.209,-0.035 0.3,-0.002c0.135,0.049 0.236,0.029 0.345,-0.053c0.2,-0.149 0.642,-0.168 0.842,-0.027c0.209,0.148 0.402,0.001 0.6,-0.016c0.079,-0.006 0.118,-0.024 0.17,0.059c0.04,0.064 0.137,0.092 0.209,0.137c0.03,-0.054 0.06,-0.107 0.091,-0.16c0.055,-0.095 0.125,-0.117 0.217,-0.045c0.185,0.145 0.22,0.135 0.395,-0.007c0.078,-0.063 0.185,-0.099 0.285,-0.126c0.133,-0.036 0.161,0.096 0.238,0.159c0.191,0.159 0.429,0.228 0.682,0.207c0.155,-0.012 0.309,-0.037 0.486,-0.06c-0.03,0.172 -0.13,0.156 -0.221,0.167c-0.059,0.008 -0.114,0.037 -0.17,0.056c0.036,0.051 0.064,0.114 0.112,0.149c0.05,0.037 0.123,0.039 0.18,0.068c0.057,0.029 0.105,0.077 0.161,0.107c0.051,0.026 0.108,0.055 0.162,0.054c0.093,-0.002 0.156,-0.006 0.163,0.122c0.006,0.089 0.057,0.18 0.103,0.261c0.025,0.044 0.091,0.105 0.122,0.097c0.046,-0.012 0.083,-0.076 0.113,-0.124c0.017,-0.028 0.008,-0.07 0.017,-0.105c0.046,-0.18 0.138,-0.218 0.302,-0.139c0.133,0.064 0.276,0.108 0.403,0.179c0.07,0.04 0.143,0.111 0.17,0.184c0.066,0.177 0.189,0.245 0.365,0.264c0.205,0.023 0.408,0.059 0.612,0.09c0.195,0.03 0.321,-0.103 0.364,-0.385c0.034,-0.221 0.272,-0.407 0.487,-0.361c0.044,0.009 0.077,0.087 0.106,0.139c0.013,0.023 -0.001,0.059 0.003,0.088c0.014,0.119 -0.164,0.286 0.079,0.348c0.13,0.033 0.264,0.052 0.419,0.082c0.057,0.171 0,0.219 -0.325,0.214c-0.077,0.15 -0.157,0.304 -0.236,0.46c-0.104,0.209 0.032,0.369 0.13,0.521c0.059,0.093 0.183,0.144 0.272,0.22c0.055,0.048 0.096,0.11 0.145,0.164c0.075,0.086 0.154,0.241 0.227,0.239c0.099,-0.004 0.202,-0.12 0.285,-0.205c0.062,-0.065 0.095,-0.157 0.152,-0.258c0.131,0.181 0.271,0.322 0.247,0.541c-0.002,0.026 0.007,0.061 0.024,0.083c0.122,0.158 0.1,0.273 -0.084,0.369c-0.051,0.026 -0.091,0.112 -0.097,0.174c-0.015,0.151 -0.007,0.305 -0.009,0.479c0.018,0.002 0.063,0.002 0.106,0.014c0.049,0.013 0.125,0.023 0.138,0.056c0.073,0.172 0.164,0.31 0.369,0.341c0.029,0.005 0.054,0.082 0.066,0.13c0.009,0.038 -0.012,0.083 -0.009,0.123c0.005,0.09 0.016,0.18 0.025,0.27c0.073,-0.042 0.142,-0.094 0.22,-0.121c0.051,-0.018 0.132,-0.021 0.167,0.008c0.055,0.046 0.111,0.122 0.118,0.19c0.02,0.212 0.013,0.427 0.027,0.64c0.002,0.04 0.046,0.093 0.084,0.112c0.078,0.039 0.165,0.076 0.25,0.082c0.099,0.006 0.213,0.004 0.299,-0.039c0.169,-0.084 0.262,-0.032 0.341,0.119c0.044,0.084 0.105,0.159 0.164,0.233c0.142,0.178 0.218,0.176 0.369,-0.021c0.046,0.026 0.098,0.05 0.142,0.083c0.171,0.126 0.347,0.248 0.505,0.389c0.061,0.055 0.079,0.158 0.115,0.24c0.04,0.093 0.068,0.194 0.124,0.276c0.019,0.03 0.128,0.042 0.154,0.018c0.137,-0.127 0.238,-0.032 0.32,0.053c0.132,0.138 0.274,0.28 0.358,0.448c0.098,0.197 0.141,0.423 0.203,0.637c0.018,0.062 0.024,0.128 0.028,0.193c0.006,0.103 0.061,0.128 0.155,0.123c0.238,-0.015 0.396,0.208 0.298,0.424c-0.103,0.226 -0.212,0.45 -0.324,0.672c-0.067,0.134 -0.161,0.212 -0.332,0.224c-0.26,0.018 -0.437,0.216 -0.588,0.4c-0.142,0.175 -0.293,0.191 -0.47,0.12c-0.102,-0.041 -0.182,-0.037 -0.23,0.053c-0.05,0.092 -0.029,0.181 0.068,0.247c0.059,0.039 0.104,0.099 0.16,0.142c0.084,0.066 0.165,0.107 0.29,0.079c0.115,-0.026 0.249,-0.005 0.367,0.027c0.125,0.033 0.146,0.151 0.063,0.249c-0.159,0.188 -0.394,0.226 -0.595,0.094c-0.112,-0.073 -0.197,-0.044 -0.2,0.084c-0.007,0.257 -0.078,0.526 0.14,0.748c0.057,0.058 0.07,0.161 0.103,0.243c0.032,0.08 0.067,0.158 0.097,0.239c0.016,0.043 0.042,0.09 0.036,0.132c-0.024,0.174 -0.058,0.347 -0.09,0.535c-0.29,0.039 -0.543,0.191 -0.797,0.363c-0.165,0.112 -0.384,0.142 -0.575,0.216c-0.049,0.019 -0.124,0.069 -0.124,0.104c0.002,0.198 -0.038,0.41 0.121,0.577c0.109,0.116 0.032,0.348 -0.136,0.398c-0.057,0.016 -0.117,0.021 -0.202,0.036c0.017,0.065 0.03,0.124 0.049,0.18c0.007,0.021 0.029,0.037 0.043,0.057c0.078,0.109 0.147,0.302 0.237,0.312c0.169,0.019 0.361,-0.044 0.526,-0.114c0.216,-0.092 0.431,-0.119 0.661,-0.111c0.094,0.003 0.189,-0.034 0.284,-0.049c0.041,-0.007 0.099,-0.021 0.121,-0.002c0.191,0.174 0.358,0.057 0.53,-0.031c0.019,-0.01 0.044,-0.009 0.065,-0.013c0.112,0.215 0.102,0.296 -0.103,0.382c-0.234,0.098 -0.492,0.236 -0.725,0.213c-0.266,-0.026 -0.405,0.075 -0.581,0.219c-0.127,0.105 -0.192,0.218 -0.218,0.368c-0.041,0.236 -0.18,0.375 -0.414,0.389c-0.062,0.003 -0.127,-0.05 -0.228,-0.094c-0.045,0.272 -0.196,0.477 -0.453,0.578c-0.252,0.099 -0.485,-0.028 -0.744,-0.151c0.107,0.289 0.348,0.456 0.566,0.419c0.118,-0.02 0.195,0.011 0.257,0.108c0.028,0.045 0.059,0.113 0.099,0.122c0.272,0.06 0.381,0.31 0.547,0.482c0.114,0.119 0.159,0.31 0.213,0.476c0.038,0.117 0.04,0.246 0.055,0.369c0.019,0.166 -0.033,0.306 -0.166,0.411c-0.168,0.132 -0.341,0.259 -0.331,0.509c0.001,0.035 -0.023,0.09 -0.051,0.105c-0.188,0.094 -0.374,0.194 -0.572,0.264c-0.125,0.044 -0.215,-0.036 -0.312,-0.141c-0.137,-0.148 -0.329,-0.243 -0.492,-0.369c-0.071,-0.055 -0.122,-0.136 -0.193,-0.191c-0.044,-0.034 -0.139,-0.074 -0.158,-0.055c-0.109,0.103 -0.202,0.224 -0.297,0.333c0.106,0.1 0.257,0.201 0.349,0.342c0.057,0.086 0.065,0.25 0.022,0.347c-0.093,0.21 -0.23,0.4 -0.354,0.596c-0.048,0.076 -0.047,0.119 0.001,0.212c0.072,0.143 0.086,0.322 0.093,0.487c0.006,0.117 -0.04,0.236 -0.071,0.389c-0.102,-0.014 -0.228,-0.029 -0.352,-0.05c-0.206,-0.034 -0.239,-0.015 -0.271,0.194c-0.023,0.148 -0.132,0.193 -0.251,0.208c-0.101,0.013 -0.126,-0.058 -0.111,-0.153c0.017,-0.096 -0.005,-0.173 -0.127,-0.193c-0.11,-0.018 -0.17,-0.01 -0.201,0.124c-0.027,0.116 -0.136,0.121 -0.228,0.051c-0.116,-0.087 -0.106,-0.315 0.015,-0.395c0.069,-0.046 0.149,-0.077 0.215,-0.126c0.05,-0.037 0.085,-0.093 0.127,-0.14c-0.009,-0.017 -0.017,-0.033 -0.025,-0.05" style="fill:#fdb92f;fill-rule:nonzero;"/><path d="M230.106,47.067c0.53,0.3 1.056,0.607 1.591,0.898c1.391,0.756 2.915,1.21 4.459,1.267c4.95,0.186 8.86,-1.755 11.451,-6.066c1.431,-2.381 1.843,-4.983 1.535,-7.732c-0.648,-5.779 -3.578,-10.115 -8.351,-13.29c-2.382,-1.585 -4.995,-2.661 -7.739,-3.447c-2.713,-0.777 -8.875,-1.698 -9.055,-1.799c0.982,-0.258 1.993,-0.548 2.981,-0.779c3.319,-0.777 6.713,-0.606 10.081,-0.766c2.136,-0.102 4.248,-0.357 6.28,-1.078c1.295,-0.459 2.342,-1.282 3.313,-2.226c1.372,-1.333 2.674,-2.751 4.152,-3.955c1.217,-0.992 2.645,-1.726 3.982,-2.57c0.081,-0.051 0.207,-0.108 0.356,-0.149c-0.518,0.771 -1.035,1.533 -1.498,2.266c-1.668,2.64 -2.416,5.528 -2.175,8.64c0.134,1.722 0.59,3.389 1.072,5.048c0.574,1.971 1.187,3.937 1.623,5.94c0.617,2.83 0.705,5.71 0.29,8.583c-0.665,4.607 -2.561,8.595 -6.081,11.726c-1.719,1.529 -3.688,2.628 -5.908,3.228c-2.018,0.546 -4.072,0.622 -6.11,0.103c-3.421,-0.721 -6.254,-3.805 -6.249,-3.842" style="fill:#143f6c;fill-rule:nonzero;"/><path d="M240.356,12.956c-2.032,-0.04 -3.674,-1.724 -3.621,-3.755c0.057,-2.173 1.668,-3.742 3.808,-3.665c2.153,0.076 3.656,1.614 3.607,3.822c-0.047,2.135 -1.673,3.582 -3.794,3.598" style="fill:#143f6c;fill-rule:nonzero;"/><path d="M235.761,6.892c0,0 2.33,-4.75 7.689,-2.028c0,0 -0.391,-4.128 2.634,-4.529l-7.808,-0.279l-7.008,3.964c2.871,-1.059 4.493,2.872 4.493,2.872" style="fill:#143f6c;fill-rule:nonzero;"/><path d="M246.63,5.66l-1.018,-1.879c0.14,-0.092 0.235,-0.242 0.194,-0.414c-0.042,-0.178 -0.2,-0.271 -0.372,-0.286l-0.682,-2.674l-0.222,0.053l0.682,2.674c-0.148,0.09 -0.247,0.245 -0.205,0.422c0.041,0.173 0.193,0.264 0.359,0.283l-0.065,2.137l1.329,-0.316Z" style="fill:#143f6c;fill-rule:nonzero;"/></g><g><path d="M26.3,44.44c-0.48,-10.039 -3.511,-27.049 -17.376,-38.924l0.687,8.775c8.082,8.23 13.225,18.642 15.528,31.162l-0.039,0c-1.91,-8.924 -7.308,-24.03 -22.469,-33.71l0.456,8.573c9.671,6.614 16.363,14.489 20.912,26.15l-0.039,0c-3.064,-7.061 -9.91,-18.355 -23.96,-24.941l0.516,9.164c12.652,5.024 16.763,9.314 25.613,22.053l0.01,0.014l0.478,0l0.009,-0.015c0.887,-1.308 1.756,-2.507 2.573,-3.64l0.018,0l0,-0.027c7.193,-9.96 11.67,-13.877 23.022,-18.385l0.516,-9.164c-14.05,6.586 -20.896,17.88 -23.959,24.941l-0.04,0c4.549,-11.661 11.241,-19.536 20.913,-26.15l0.456,-8.573c-15.162,9.68 -20.559,24.786 -22.47,33.71l-0.039,0c2.303,-12.52 7.446,-22.932 15.528,-31.162l0.689,-8.775c-13.868,11.875 -16.898,28.885 -17.378,38.924l-0.155,0Zm7.615,-36.903c0,4.159 -3.378,7.537 -7.538,7.537c-4.159,0 -7.536,-3.378 -7.536,-7.537c0,-4.16 3.377,-7.537 7.536,-7.537c4.16,0 7.538,3.377 7.538,7.537Z" style="fill:#ed1c24;"/><path d="M87.247,20.813l0,-10.225l-10.226,0l0,4.473l5.214,0l0,3.364c-1.312,0.942 -2.96,1.413 -4.877,1.413c-1.043,0 -2.018,-0.202 -2.859,-0.572c-0.875,-0.37 -1.615,-0.875 -2.254,-1.547c-0.639,-0.673 -1.144,-1.48 -1.48,-2.389c-0.37,-0.908 -0.538,-1.883 -0.538,-2.959l0,-0.068c0,-1.009 0.168,-1.951 0.538,-2.859c0.336,-0.874 0.807,-1.648 1.446,-2.32c0.606,-0.64 1.312,-1.178 2.153,-1.581c0.807,-0.37 1.682,-0.572 2.624,-0.572c0.673,0 1.278,0.067 1.85,0.168c0.572,0.101 1.076,0.269 1.581,0.471c0.47,0.202 0.941,0.437 1.379,0.74c0.437,0.303 0.908,0.639 1.345,1.009l3.263,-3.935c-0.606,-0.505 -1.245,-0.976 -1.884,-1.379c-0.639,-0.404 -1.345,-0.74 -2.085,-1.009c-0.74,-0.27 -1.548,-0.471 -2.388,-0.639c-0.875,-0.135 -1.85,-0.202 -2.893,-0.202c-1.783,0 -3.431,0.302 -4.945,0.942c-1.513,0.639 -2.792,1.513 -3.901,2.623c-1.11,1.11 -1.951,2.422 -2.557,3.868c-0.639,1.48 -0.942,3.061 -0.942,4.743l0,0.067c0,1.749 0.303,3.363 0.909,4.843c0.605,1.48 1.446,2.759 2.556,3.835c1.076,1.076 2.388,1.917 3.902,2.522c1.513,0.606 3.162,0.908 5.012,0.908c2.152,0 4.07,-0.37 5.751,-1.109c1.648,-0.707 3.095,-1.581 4.306,-2.624Z" style="fill:#ed1c24;fill-rule:nonzero;"/><path d="M104.955,24.143l0,-10.461c0,-2.455 -0.639,-4.339 -1.917,-5.718c-1.278,-1.378 -3.33,-2.051 -6.122,-2.051c-1.514,0 -2.825,0.134 -3.902,0.403c-1.076,0.27 -2.119,0.606 -3.094,1.043l1.278,3.902c0.841,-0.303 1.614,-0.572 2.388,-0.74c0.74,-0.169 1.615,-0.236 2.59,-0.236c1.278,0 2.254,0.269 2.893,0.841c0.639,0.572 0.975,1.379 0.975,2.456l0,0.302c-0.639,-0.235 -1.311,-0.404 -1.984,-0.538c-0.707,-0.135 -1.514,-0.202 -2.422,-0.202c-1.076,0 -2.052,0.101 -2.926,0.336c-0.909,0.236 -1.649,0.606 -2.288,1.077c-0.639,0.471 -1.143,1.076 -1.513,1.782c-0.37,0.707 -0.538,1.581 -0.538,2.557l0,0.067c0,0.908 0.168,1.682 0.504,2.354c0.303,0.707 0.74,1.278 1.312,1.749c0.572,0.471 1.211,0.808 1.985,1.043c0.74,0.269 1.547,0.37 2.388,0.37c1.244,0 2.32,-0.202 3.195,-0.639c0.875,-0.403 1.615,-0.942 2.254,-1.648l0,1.951l4.944,0Zm-4.843,-6.357c0,0.941 -0.371,1.715 -1.077,2.287c-0.74,0.572 -1.715,0.874 -2.926,0.874c-0.841,0 -1.514,-0.201 -2.018,-0.571c-0.505,-0.37 -0.774,-0.909 -0.774,-1.615l0,-0.067c0,-0.807 0.303,-1.413 0.942,-1.85c0.639,-0.437 1.48,-0.639 2.59,-0.639c0.639,0 1.211,0.067 1.783,0.168c0.538,0.135 1.042,0.303 1.48,0.505l0,0.908Z" style="fill:#ed1c24;fill-rule:nonzero;"/><path d="M123.639,24.143l0,-11.672c0,-2.085 -0.538,-3.733 -1.581,-4.91c-1.076,-1.177 -2.59,-1.783 -4.541,-1.783c-0.639,0 -1.244,0.068 -1.749,0.235c-0.504,0.169 -0.975,0.371 -1.412,0.64c-0.438,0.269 -0.808,0.571 -1.144,0.908c-0.37,0.37 -0.673,0.74 -0.975,1.11l0,-2.556l-5.113,0l0,18.028l5.113,0l0,-10.057c0,-1.211 0.302,-2.119 0.874,-2.758c0.572,-0.605 1.345,-0.908 2.321,-0.908c0.975,0 1.749,0.303 2.287,0.908c0.538,0.639 0.807,1.547 0.807,2.758l0,10.057l5.113,0Z" style="fill:#ed1c24;fill-rule:nonzero;"/><path d="M144.779,15.162l0,-0.067c0,-1.513 -0.236,-2.825 -0.673,-4.003c-0.471,-1.143 -1.077,-2.118 -1.85,-2.926c-0.774,-0.773 -1.649,-1.379 -2.624,-1.782c-0.976,-0.404 -2.018,-0.606 -3.061,-0.606c-1.345,0 -2.455,0.269 -3.33,0.808c-0.908,0.571 -1.648,1.278 -2.287,2.118l0,-2.589l-5.113,0l0,23.409l5.113,0l0,-7.736c0.606,0.707 1.345,1.346 2.254,1.884c0.874,0.538 1.984,0.807 3.363,0.807c1.076,0 2.119,-0.202 3.094,-0.605c0.976,-0.404 1.851,-1.01 2.624,-1.817c0.74,-0.773 1.346,-1.748 1.817,-2.926c0.437,-1.143 0.673,-2.455 0.673,-3.969Zm-5.114,0c0,0.774 -0.1,1.446 -0.336,2.052c-0.235,0.605 -0.571,1.11 -0.975,1.547c-0.404,0.437 -0.875,0.774 -1.379,1.009c-0.538,0.236 -1.11,0.37 -1.716,0.37c-0.605,0 -1.177,-0.134 -1.682,-0.37c-0.538,-0.235 -1.009,-0.572 -1.379,-1.009c-0.403,-0.437 -0.706,-0.942 -0.941,-1.58c-0.236,-0.606 -0.37,-1.279 -0.37,-2.019l0,-0.067c0,-0.74 0.134,-1.413 0.37,-2.052c0.235,-0.605 0.538,-1.143 0.941,-1.581c0.37,-0.437 0.841,-0.773 1.379,-1.008c0.505,-0.236 1.077,-0.337 1.682,-0.337c0.606,0 1.178,0.101 1.716,0.337c0.504,0.235 0.975,0.571 1.379,1.008c0.404,0.438 0.74,0.976 0.975,1.581c0.236,0.639 0.336,1.312 0.336,2.052l0,0.067Z" style="fill:#ed1c24;fill-rule:nonzero;"/><path d="M161.814,24.143l0,-10.461c0,-2.455 -0.639,-4.339 -1.917,-5.718c-1.278,-1.378 -3.33,-2.051 -6.122,-2.051c-1.514,0 -2.825,0.134 -3.901,0.403c-1.077,0.27 -2.12,0.606 -3.095,1.043l1.278,3.902c0.841,-0.303 1.615,-0.572 2.388,-0.74c0.74,-0.169 1.615,-0.236 2.59,-0.236c1.278,0 2.254,0.269 2.893,0.841c0.639,0.572 0.975,1.379 0.975,2.456l0,0.302c-0.639,-0.235 -1.312,-0.404 -1.984,-0.538c-0.706,-0.135 -1.514,-0.202 -2.422,-0.202c-1.076,0 -2.052,0.101 -2.927,0.336c-0.907,0.236 -1.648,0.606 -2.287,1.077c-0.639,0.471 -1.143,1.076 -1.513,1.782c-0.37,0.707 -0.539,1.581 -0.539,2.557l0,0.067c0,0.908 0.169,1.682 0.505,2.354c0.303,0.707 0.74,1.278 1.312,1.749c0.572,0.471 1.211,0.808 1.984,1.043c0.74,0.269 1.548,0.37 2.389,0.37c1.244,0 2.321,-0.202 3.195,-0.639c0.875,-0.403 1.615,-0.942 2.254,-1.648l0,1.951l4.944,0Zm-4.843,-6.357c0,0.941 -0.371,1.715 -1.077,2.287c-0.74,0.572 -1.715,0.874 -2.926,0.874c-0.841,0 -1.514,-0.201 -2.018,-0.571c-0.505,-0.37 -0.774,-0.909 -0.774,-1.615l0,-0.067c0,-0.807 0.303,-1.413 0.942,-1.85c0.639,-0.437 1.48,-0.639 2.59,-0.639c0.639,0 1.211,0.067 1.783,0.168c0.538,0.135 1.042,0.303 1.48,0.505l0,0.908Z" style="fill:#ed1c24;fill-rule:nonzero;"/><path d="M174.107,23.403l0,-4.103c-0.773,0.436 -1.614,0.638 -2.523,0.638c-1.109,0 -1.648,-0.571 -1.648,-1.749l0,-7.702l4.238,0l0,-4.372l-4.238,0l0,-4.608l-5.113,0l0,4.608l-2.152,0l0,4.372l2.152,0l0,8.543c0,1.043 0.135,1.917 0.404,2.59c0.236,0.706 0.606,1.244 1.077,1.682c0.437,0.437 1.009,0.706 1.648,0.908c0.639,0.168 1.345,0.236 2.119,0.236c0.841,0 1.614,-0.101 2.254,-0.27c0.638,-0.201 1.244,-0.47 1.782,-0.773Z" style="fill:#ed1c24;fill-rule:nonzero;"/><path d="M156.53,59.755l0,6.687l-0.806,-0.51l0,-6.687l0.806,0.51Zm-2.712,0l0,6.687l-0.804,-0.51l0,-6.687l0.804,0.51Zm-6.1,5.479l-1.209,1.208l-1.223,-1.222l1.209,-1.209l1.223,1.223Zm0,-4.243l-1.209,1.208l-1.223,-1.236l1.209,-1.208l1.223,1.236Zm-4.216,-1.156c-0.251,-0.384 -0.456,-0.755 -0.618,-1.114c-0.242,-0.528 -0.362,-0.958 -0.362,-1.289c0,-0.296 0.112,-0.559 0.335,-0.792c0.224,-0.232 0.48,-0.349 0.766,-0.349c0.232,0 0.438,0.08 0.618,0.242c0.232,0.215 0.411,0.555 0.536,1.02l-0.255,0.08c-0.116,-0.25 -0.23,-0.425 -0.342,-0.523c-0.112,-0.098 -0.239,-0.148 -0.383,-0.148c-0.188,0 -0.347,0.087 -0.476,0.262c-0.13,0.175 -0.195,0.379 -0.195,0.611c0,0.241 0.076,0.568 0.228,0.98c0.09,0.251 0.219,0.56 0.39,0.927l-0.242,0.093Zm-2.832,0.927l0,2.136c0,0.258 0.051,0.465 0.154,0.617c0.103,0.152 0.244,0.228 0.423,0.228c0.314,0 0.616,-0.083 0.906,-0.249c0.291,-0.165 0.522,-0.355 0.692,-0.57l-2.175,-2.162Zm2.363,1.8l0,-2.431l-2.444,0l2.444,2.431Zm1.424,-3.183l0.402,0.752l-1.021,0l0,6.257l-0.832,-0.47l0.054,-2.175c-0.206,0.161 -0.441,0.299 -0.706,0.417c-0.263,0.116 -0.512,0.173 -0.744,0.173c-0.323,0 -0.676,-0.156 -1.061,-0.469c-0.456,-0.367 -0.685,-0.774 -0.685,-1.222l0,-2.511l-1.222,0l-0.403,-0.752l6.218,0Zm-12.768,3.666c0,0.242 0.083,0.436 0.249,0.584c0.166,0.147 0.374,0.222 0.624,0.222c0.269,0 0.553,-0.072 0.853,-0.215c0.3,-0.143 0.651,-0.371 1.054,-0.685c-0.251,-0.34 -0.502,-0.584 -0.752,-0.732c-0.25,-0.148 -0.556,-0.221 -0.913,-0.221c-0.295,0 -0.555,0.09 -0.779,0.274c-0.223,0.185 -0.336,0.442 -0.336,0.773Zm3.572,-2.914l0,2.31c0.259,-0.206 0.483,-0.359 0.672,-0.456c0.187,-0.099 0.384,-0.149 0.59,-0.149c0.314,0 0.618,0.157 0.914,0.471c0.376,0.402 0.564,0.939 0.564,1.61c0,0.278 -0.054,0.549 -0.161,0.813c-0.108,0.264 -0.292,0.598 -0.552,1l-0.684,-0.617c0.233,-0.314 0.422,-0.64 0.571,-0.98c0.148,-0.34 0.222,-0.636 0.222,-0.887c0,-0.197 -0.066,-0.356 -0.195,-0.476c-0.131,-0.122 -0.29,-0.181 -0.477,-0.181c-0.152,0 -0.368,0.076 -0.645,0.227c-0.278,0.153 -0.55,0.345 -0.819,0.578l0,2.994l-0.832,-0.47l0.054,-1.987c-0.404,0.251 -0.701,0.412 -0.894,0.484c-0.192,0.071 -0.386,0.107 -0.584,0.107c-0.519,0 -0.969,-0.19 -1.349,-0.57c-0.38,-0.381 -0.57,-0.831 -0.57,-1.35c0,-0.277 0.094,-0.542 0.281,-0.792c0.287,-0.376 0.712,-0.564 1.276,-0.564c0.242,0 0.445,0.018 0.61,0.053c0.166,0.036 0.318,0.112 0.457,0.228c0.139,0.117 0.273,0.253 0.403,0.41c0.13,0.157 0.235,0.293 0.316,0.41l0.026,-2.216l-4.162,0l-0.402,-0.752l8.929,0l0.402,0.752l-3.961,0Zm-3.839,2.001l-1.651,0c-0.806,0 -1.209,0.362 -1.209,1.088c0,0.322 0.105,0.68 0.316,1.074c0.21,0.394 0.588,0.922 1.134,1.584l-0.429,0.349c-0.654,-0.823 -1.108,-1.493 -1.364,-2.007c-0.255,-0.515 -0.382,-1 -0.382,-1.457c0,-0.465 0.157,-0.824 0.47,-1.075c0.259,-0.205 0.578,-0.308 0.953,-0.308l2.162,0l0,0.752Zm-4.39,-2.001l-0.404,-0.752l3.774,0l0.402,0.752l-3.772,0Zm-3.021,-2.565c-0.107,-0.107 -0.229,-0.199 -0.362,-0.275c-0.134,-0.076 -0.269,-0.114 -0.403,-0.114c-0.054,0 -0.148,0.022 -0.283,0.068c-0.133,0.044 -0.263,0.085 -0.389,0.12c-0.053,-0.053 -0.163,-0.237 -0.329,-0.55c-0.166,-0.314 -0.248,-0.497 -0.248,-0.551c0,-0.063 0.074,-0.11 0.222,-0.142c0.147,-0.031 0.292,-0.046 0.436,-0.046c0.188,0 0.399,0.062 0.631,0.188c0.233,0.125 0.465,0.322 0.698,0.59c0.125,0.145 0.388,0.48 0.786,1.008c0.398,0.528 0.794,1.056 1.189,1.584l-0.269,0.148c-0.198,-0.26 -0.499,-0.636 -0.907,-1.128c-0.407,-0.492 -0.664,-0.792 -0.772,-0.9Zm2.807,1.813l0.404,0.752l-1.021,0l0,6.257l-0.819,-0.47l0.027,-5.787l-1.034,0l-0.403,-0.752l2.846,0Zm-8.471,2.39c0.126,0.296 0.26,0.573 0.403,0.833c0.143,0.259 0.295,0.499 0.457,0.718c0.161,0.22 0.37,0.412 0.625,0.578c0.255,0.165 0.476,0.249 0.665,0.249c0.231,0 0.408,-0.068 0.529,-0.202c0.121,-0.134 0.182,-0.318 0.182,-0.551c0,-0.314 -0.175,-0.64 -0.524,-0.98c-0.26,-0.251 -0.596,-0.498 -1.007,-0.739l0.107,-0.282l3.129,0l0,-1.262l-5.801,0l-0.402,-0.752l7.626,0l0.403,0.752l-1.02,0l0,6.257l-0.833,-0.47l0.027,-3.773l-1.906,0c0.357,0.359 0.599,0.636 0.724,0.833c0.17,0.268 0.256,0.555 0.256,0.859c0,0.34 -0.139,0.618 -0.417,0.833c-0.242,0.188 -0.509,0.282 -0.806,0.282c-0.626,0 -1.195,-0.319 -1.705,-0.954c-0.331,-0.421 -0.716,-1.1 -1.154,-2.04l0.442,-0.189Zm-1.274,-2.39l0.403,0.752l-1.02,0l0,6.257l-0.82,-0.47l0.028,-5.787l-1.034,0l-0.404,-0.752l2.847,0Zm-2.469,0l0.403,0.752l-1.021,0l0,6.257l-0.819,-0.47l0.027,-5.787l-1.034,0l-0.404,-0.752l2.848,0Zm-3.852,0.752l0,2.658l2.712,0l0,0.753l-2.712,0l0,0.618c0,0.224 -0.09,0.335 -0.269,0.335c-0.126,0 -0.387,-0.208 -0.785,-0.625c-0.399,-0.415 -0.598,-0.677 -0.598,-0.785c0,-0.062 0.025,-0.128 0.074,-0.195c0.049,-0.066 0.11,-0.101 0.181,-0.101l0.59,0l0,-2.658l-1.651,0l-0.402,-0.752l4.471,0l0.403,0.752l-2.014,0Zm-6.498,0l0,2.31c0.197,0.116 0.385,0.21 0.563,0.282c0.269,0.107 0.515,0.16 0.74,0.16c0.178,0 0.395,-0.049 0.65,-0.147c0.255,-0.098 0.468,-0.216 0.638,-0.349l0,-2.256l-2.591,0Zm4.015,-0.752l0.403,0.752l-1.02,0l0,6.257l-0.833,-0.47l0.053,-2.524c-0.134,0.045 -0.32,0.096 -0.557,0.154c-0.237,0.06 -0.405,0.088 -0.504,0.088c-0.286,0 -0.568,-0.063 -0.845,-0.188c-0.278,-0.126 -0.524,-0.304 -0.739,-0.537c-0.089,0.098 -0.183,0.197 -0.283,0.296c-0.142,0.142 -0.249,0.232 -0.321,0.268c-0.161,0.08 -0.269,0.143 -0.322,0.187c-0.054,0.045 -0.081,0.085 -0.081,0.121c0,0.037 0.358,0.421 1.074,1.156c0.35,0.358 0.699,0.715 1.047,1.073l-0.375,0.376c-1.173,-1.307 -1.93,-2.17 -2.27,-2.591c-0.421,-0.528 -0.631,-0.899 -0.631,-1.115c0,-0.107 0.038,-0.21 0.115,-0.309c0.075,-0.099 0.163,-0.147 0.261,-0.147c0.045,0 0.184,0.065 0.417,0.194c0.232,0.131 0.371,0.195 0.416,0.195c0.053,0 0.096,-0.103 0.127,-0.308c0.032,-0.207 0.047,-0.663 0.047,-1.37c0,-0.233 -0.004,-0.403 -0.014,-0.511c-0.027,-0.134 -0.04,-0.231 -0.04,-0.295l-2.135,0l-0.402,-0.752l7.412,0Zm-10.48,0l0.404,0.752l-1.021,0l0,6.257l-0.819,-0.47l0.027,-5.787l-1.035,0l-0.402,-0.752l2.846,0Zm-5.919,0.752c0.143,0.26 0.26,0.515 0.349,0.766c0.089,0.25 0.135,0.451 0.135,0.604c0,0.286 -0.145,0.537 -0.43,0.752c-0.233,0.17 -0.592,0.336 -1.074,0.496c0,0.296 0.076,0.538 0.228,0.726c0.152,0.187 0.376,0.282 0.671,0.282c0.313,0 0.62,-0.063 0.92,-0.188c0.3,-0.126 0.709,-0.403 1.228,-0.833l0,-2.605l-2.027,0Zm2.054,3.558c-0.197,0.189 -0.432,0.345 -0.705,0.471c-0.273,0.125 -0.521,0.188 -0.745,0.188c-0.698,0 -1.275,-0.229 -1.732,-0.686c-0.376,-0.375 -0.649,-0.881 -0.82,-1.517c0.511,-0.097 0.923,-0.248 1.236,-0.449c0.314,-0.202 0.47,-0.428 0.47,-0.679c0,-0.143 -0.056,-0.313 -0.168,-0.51c-0.111,-0.197 -0.182,-0.323 -0.208,-0.376l-2.134,0l-0.404,-0.752l6.607,0l0.402,0.752l-1.02,0l0,6.257l-0.833,-0.47l0.054,-2.229Zm-7.854,-3.558l0,1.396c0,0.18 -0.085,0.269 -0.255,0.269l-1.45,0c-0.314,0 -0.526,0.033 -0.638,0.101c-0.112,0.067 -0.168,0.203 -0.168,0.41c0,0.197 0.106,0.367 0.316,0.509c0.21,0.144 0.459,0.215 0.745,0.215c0.224,-0.026 0.423,-0.049 0.598,-0.066c0.174,-0.018 0.387,-0.027 0.637,-0.027c0.126,0 0.242,0.085 0.35,0.255c0.107,0.17 0.161,0.313 0.161,0.429c0,0.063 -0.025,0.114 -0.074,0.154c-0.05,0.041 -0.1,0.061 -0.155,0.061c-0.26,0 -0.512,-0.025 -0.758,-0.074c-0.246,-0.049 -0.382,-0.074 -0.41,-0.074c-0.241,0 -0.423,0.083 -0.544,0.248c-0.12,0.166 -0.18,0.357 -0.18,0.572c0,0.251 0.073,0.44 0.221,0.57c0.148,0.13 0.319,0.195 0.518,0.195c0.464,0 0.947,-0.152 1.449,-0.457c0.403,-0.241 0.81,-0.577 1.221,-1.006l0,-3.68l-1.584,0Zm3.008,-0.752l0.403,0.752l-1.021,0l0,6.257l-0.833,-0.47l0.027,-1.141c-0.223,0.243 -0.536,0.474 -0.939,0.698c-0.475,0.26 -0.891,0.39 -1.249,0.39c-0.438,0 -0.873,-0.17 -1.302,-0.511c-0.43,-0.339 -0.645,-0.726 -0.645,-1.154c0,-0.171 0.038,-0.334 0.114,-0.491c0.076,-0.156 0.2,-0.288 0.37,-0.395c-0.269,-0.125 -0.515,-0.318 -0.74,-0.578c-0.285,-0.331 -0.429,-0.667 -0.429,-1.007c0,-0.206 0.049,-0.363 0.148,-0.47c0.134,-0.144 0.362,-0.215 0.685,-0.215l1.597,0l0,-0.913l-3.235,0l-0.404,-0.752l7.453,0Zm-11.828,3.545c0,0.367 0.093,0.647 0.281,0.839c0.188,0.193 0.448,0.29 0.778,0.29c0.306,0 0.674,-0.129 1.109,-0.384c0.434,-0.255 0.812,-0.566 1.135,-0.933c-0.242,-0.224 -0.515,-0.415 -0.82,-0.577c-0.393,-0.206 -0.747,-0.309 -1.06,-0.309c-0.448,0 -0.797,0.108 -1.048,0.322c-0.251,0.215 -0.375,0.466 -0.375,0.752Zm3.342,0.846c-0.321,0.277 -0.643,0.492 -0.966,0.645c-0.322,0.152 -0.662,0.228 -1.021,0.228c-0.456,0 -0.903,-0.183 -1.342,-0.551c-0.493,-0.411 -0.738,-0.899 -0.738,-1.463c0,-0.412 0.138,-0.757 0.416,-1.034c0.331,-0.331 0.819,-0.497 1.463,-0.497c0.206,0 0.416,0.015 0.631,0.047c0.216,0.031 0.407,0.101 0.578,0.208c0.143,0.081 0.273,0.181 0.389,0.302c0.117,0.121 0.296,0.347 0.537,0.679l0.027,-2.203l-4.847,0l-0.403,-0.752l6.673,0l0.403,0.752l-1.02,0l0,6.257l-0.833,-0.47l0.053,-2.148Zm-6.483,-4.391c-0.118,-0.161 -0.198,-0.282 -0.242,-0.363c-0.116,-0.214 -0.174,-0.456 -0.174,-0.724c0,-0.34 0.125,-0.663 0.376,-0.967c0.331,-0.403 0.792,-0.604 1.382,-0.604c0.412,0 0.92,0.138 1.524,0.415c0.605,0.278 1.126,0.604 1.565,0.98l0,0.484c-0.439,-0.349 -0.909,-0.637 -1.41,-0.866c-0.502,-0.228 -0.918,-0.343 -1.249,-0.343c-0.42,0 -0.772,0.142 -1.054,0.424c-0.282,0.282 -0.423,0.588 -0.423,0.92c0,0.278 0.04,0.492 0.121,0.644l1.169,0l0.402,0.752l-1.249,0l0,6.257l-0.819,-0.47l0.027,-5.787l-1.262,0l-0.403,-0.752l1.719,0Zm-5.524,0.376l0,6.687l-0.806,-0.51l0,-6.687l0.806,0.51Zm-2.712,0l0,6.687l-0.805,-0.51l0,-6.687l0.805,0.51Z" style="fill:#ed1c24;fill-rule:nonzero;"/><path d="M201.296,36.409l-3.959,0l-4.304,12.317l-4.713,-12.317l-4.053,0l6.912,16.59c-0.314,0.733 -0.649,1.235 -1.006,1.508c-0.356,0.272 -0.806,0.408 -1.351,0.408c-0.397,0 -0.78,-0.057 -1.147,-0.173c-0.366,-0.115 -0.727,-0.267 -1.083,-0.455l-1.289,2.828c0.587,0.314 1.189,0.56 1.807,0.738c0.618,0.178 1.325,0.267 2.121,0.267c0.67,0 1.267,-0.084 1.791,-0.251c0.524,-0.168 1.005,-0.435 1.445,-0.802c0.44,-0.366 0.838,-0.842 1.194,-1.429c0.356,-0.586 0.702,-1.309 1.037,-2.168l6.598,-17.061Zm-21.811,3.268l4.461,0l0,-3.268l-4.461,0l0,-4.556l-3.802,0l0,4.556l-2.105,0l0,3.268l2.105,0l0,8.735c0,0.921 0.115,1.691 0.345,2.309c0.231,0.618 0.561,1.115 0.99,1.492c0.43,0.377 0.938,0.65 1.524,0.817c0.586,0.168 1.226,0.252 1.917,0.252c0.712,0 1.34,-0.074 1.885,-0.22c0.544,-0.147 1.058,-0.357 1.539,-0.629l0,-3.111c-0.754,0.378 -1.539,0.566 -2.356,0.566c-0.65,0 -1.152,-0.162 -1.508,-0.487c-0.356,-0.325 -0.534,-0.853 -0.534,-1.587l0,-8.137Zm-7.61,13.322l0,-16.59l-3.802,0l0,16.59l3.802,0Zm-5.944,-4.902l0,-0.063c0,-0.754 -0.157,-1.392 -0.472,-1.916c-0.314,-0.524 -0.717,-0.969 -1.209,-1.336c-0.492,-0.366 -1.042,-0.675 -1.65,-0.926c-0.607,-0.252 -1.214,-0.472 -1.822,-0.66c-0.482,-0.147 -0.948,-0.299 -1.398,-0.456c-0.45,-0.157 -0.849,-0.325 -1.194,-0.503c-0.346,-0.178 -0.623,-0.377 -0.833,-0.596c-0.209,-0.22 -0.314,-0.477 -0.314,-0.77l0,-0.063c0,-0.482 0.204,-0.88 0.613,-1.194c0.408,-0.314 0.979,-0.471 1.712,-0.471c0.691,0 1.445,0.141 2.262,0.424c0.817,0.282 1.624,0.665 2.42,1.147l1.508,-2.702c-0.88,-0.587 -1.854,-1.048 -2.922,-1.383c-1.068,-0.335 -2.127,-0.503 -3.174,-0.503c-0.817,0 -1.586,0.116 -2.309,0.346c-0.723,0.231 -1.351,0.566 -1.885,1.005c-0.534,0.44 -0.953,0.974 -1.257,1.603c-0.304,0.628 -0.456,1.33 -0.456,2.105l0,0.063c0,0.796 0.157,1.461 0.472,1.995c0.314,0.534 0.717,0.984 1.21,1.351c0.491,0.366 1.047,0.665 1.665,0.895c0.618,0.231 1.23,0.44 1.838,0.629c0.482,0.147 0.948,0.288 1.398,0.424c0.45,0.136 0.848,0.293 1.194,0.471c0.346,0.178 0.618,0.382 0.817,0.613c0.199,0.23 0.298,0.503 0.298,0.817l0,0.063c0,0.544 -0.225,0.979 -0.675,1.304c-0.451,0.324 -1.085,0.487 -1.901,0.487c-0.859,0 -1.755,-0.173 -2.686,-0.519c-0.933,-0.345 -1.849,-0.853 -2.75,-1.524l-1.696,2.577c1.047,0.817 2.183,1.435 3.409,1.854c1.225,0.418 2.434,0.628 3.629,0.628c0.858,0 1.665,-0.11 2.419,-0.33c0.754,-0.22 1.409,-0.545 1.964,-0.974c0.555,-0.43 0.989,-0.969 1.303,-1.618c0.315,-0.65 0.472,-1.414 0.472,-2.294Zm-19.078,-1.414c0,-1.089 0.136,-2.047 0.409,-2.874c0.272,-0.828 0.659,-1.514 1.162,-2.058c0.503,-0.545 1.1,-0.954 1.791,-1.226c0.691,-0.272 1.456,-0.409 2.294,-0.409l0.22,0l0,-4.021c-1.467,-0.063 -2.681,0.283 -3.645,1.037c-0.964,0.754 -1.707,1.759 -2.231,3.016l0,-3.739l-3.802,0l0,16.59l3.802,0l0,-6.316Zm-17.978,-3.141c0.167,-1.299 0.633,-2.352 1.398,-3.158c0.765,-0.807 1.734,-1.21 2.906,-1.21c0.629,0 1.189,0.115 1.681,0.346c0.493,0.23 0.917,0.539 1.273,0.926c0.356,0.388 0.639,0.849 0.848,1.383c0.21,0.534 0.346,1.105 0.409,1.713l-8.515,0Zm0.031,2.513l12.191,0c0.021,-0.188 0.037,-0.367 0.047,-0.534c0.011,-0.168 0.016,-0.335 0.016,-0.503c0,-1.194 -0.168,-2.335 -0.503,-3.424c-0.335,-1.09 -0.832,-2.043 -1.492,-2.86c-0.66,-0.817 -1.487,-1.466 -2.482,-1.948c-0.996,-0.482 -2.153,-0.723 -3.472,-0.723c-1.194,0 -2.284,0.231 -3.268,0.692c-0.984,0.46 -1.838,1.084 -2.56,1.869c-0.723,0.786 -1.284,1.702 -1.682,2.75c-0.397,1.047 -0.596,2.168 -0.596,3.361c0,1.299 0.22,2.477 0.659,3.535c0.44,1.058 1.042,1.964 1.807,2.718c0.764,0.754 1.665,1.34 2.702,1.759c1.037,0.419 2.153,0.629 3.346,0.629c1.53,0 2.844,-0.283 3.944,-0.849c1.099,-0.565 2.047,-1.319 2.843,-2.262l-2.231,-1.979c-0.67,0.649 -1.351,1.141 -2.042,1.476c-0.692,0.336 -1.508,0.503 -2.451,0.503c-1.236,0 -2.283,-0.361 -3.142,-1.084c-0.859,-0.722 -1.403,-1.765 -1.634,-3.126Zm-11.725,2.545l-4.462,-12.191l-4.085,0l6.819,16.716l3.424,0l6.787,-16.716l-3.99,0l-4.493,12.191Zm-9.998,4.399l0,-16.59l-3.802,0l0,16.59l3.802,0Zm-17.758,-9.363c0,-1.299 0.345,-2.309 1.037,-3.032c0.691,-0.723 1.592,-1.084 2.702,-1.084c1.131,0 2.006,0.35 2.624,1.052c0.618,0.702 0.926,1.702 0.926,3.001l0,9.426l3.802,0l0,-10.557c0,-1.948 -0.513,-3.498 -1.539,-4.651c-1.027,-1.151 -2.482,-1.728 -4.368,-1.728c-0.649,0 -1.23,0.079 -1.744,0.236c-0.513,0.157 -0.984,0.372 -1.413,0.644c-0.43,0.272 -0.807,0.581 -1.132,0.927c-0.324,0.346 -0.623,0.718 -0.895,1.116l0,-2.577l-3.802,0l0,16.59l3.802,0l0,-9.363Zm-5.517,-12.631l-3.865,0l0,12.662c0,2.032 -0.492,3.561 -1.476,4.587c-0.985,1.027 -2.336,1.54 -4.053,1.54c-1.739,0 -3.101,-0.534 -4.085,-1.603c-0.984,-1.068 -1.477,-2.628 -1.477,-4.681l0,-12.505l-3.864,0l0,12.662c0,1.592 0.22,2.99 0.659,4.195c0.44,1.204 1.069,2.215 1.886,3.032c0.816,0.816 1.801,1.429 2.953,1.838c1.152,0.408 2.44,0.612 3.865,0.612c1.445,0 2.749,-0.204 3.911,-0.612c1.163,-0.409 2.153,-1.027 2.97,-1.854c0.817,-0.827 1.45,-1.859 1.901,-3.095c0.45,-1.236 0.675,-2.671 0.675,-4.304l0,-12.474Z" style="fill:#ed1c24;fill-rule:nonzero;"/><path d="M107.131,32.877c0,-0.489 -0.194,-0.957 -0.539,-1.302c-0.345,-0.345 -0.813,-0.539 -1.302,-0.539c-0.489,0 -0.956,0.194 -1.302,0.539c-0.345,0.345 -0.539,0.813 -0.539,1.302c0,0.488 0.194,0.956 0.539,1.301c0.346,0.346 0.813,0.54 1.302,0.54c0.489,0 0.957,-0.194 1.302,-0.54c0.345,-0.345 0.539,-0.813 0.539,-1.301Z" style="fill:#ed1c24;"/><path d="M171.815,32.888c0,-0.488 -0.194,-0.957 -0.539,-1.302c-0.345,-0.345 -0.813,-0.539 -1.302,-0.539c-0.488,0 -0.956,0.194 -1.301,0.539c-0.346,0.345 -0.54,0.814 -0.54,1.302c0,0.488 0.194,0.956 0.54,1.302c0.345,0.345 0.813,0.539 1.301,0.539c0.489,0 0.957,-0.194 1.302,-0.539c0.345,-0.346 0.539,-0.814 0.539,-1.302Z" style="fill:#ed1c24;"/></g><rect x="209.14" y="0.056" width="0.463" height="66.331" style="fill:#808080;"/></svg>